MeriendaOne-Regular.otf.ufo
<glyph name="ampersand" format="1">
  <advance width="620"/>
  <unicode hex="0026"/>
  <outline>
    <contour>
      <point x="216" y="590" type="curve" smooth="yes"/>
      <point x="216" y="647" smooth="yes"/>
      <point x="254" y="705" smooth="yes"/>
      <point x="315" y="705" type="curve" smooth="yes"/>
      <point x="354" y="705" smooth="yes"/>
      <point x="390" y="680" smooth="yes"/>
      <point x="390" y="628" type="curve" smooth="yes"/>
      <point x="390" y="585"/>
      <point x="372" y="552"/>
      <point x="335" y="511" type="curve"/>
      <point x="352" y="507" smooth="yes"/>
      <point x="366" y="506" smooth="yes"/>
      <point x="377" y="506" type="curve" smooth="yes"/>
      <point x="463" y="506" smooth="yes"/>
      <point x="513" y="570" smooth="yes"/>
      <point x="513" y="637" type="curve" smooth="yes"/>
      <point x="513" y="718" smooth="yes"/>
      <point x="446" y="781" smooth="yes"/>
      <point x="311" y="781" type="curve" smooth="yes"/>
      <point x="178" y="781" smooth="yes"/>
      <point x="85" y="686" smooth="yes"/>
      <point x="85" y="587" type="curve" smooth="yes"/>
      <point x="85" y="516"/>
      <point x="121" y="436"/>
      <point x="239" y="397" type="curve"/>
      <point x="90" y="374" smooth="yes"/>
      <point x="9" y="269" smooth="yes"/>
      <point x="9" y="168" type="curve" smooth="yes" name="hr01"/>
      <point x="9" y="34" smooth="yes"/>
      <point x="103" y="-33" smooth="yes"/>
      <point x="208" y="-33" type="curve" smooth="yes"/>
      <point x="262" y="-33"/>
      <point x="337" y="-12"/>
      <point x="383" y="56" type="curve"/>
      <point x="380" y="35" smooth="yes"/>
      <point x="376" y="-20" smooth="yes"/>
      <point x="376" y="-42" type="curve" smooth="yes"/>
      <point x="376" y="-143"/>
      <point x="400" y="-209"/>
      <point x="512" y="-230" type="curve"/>
      <point x="503" y="-209" smooth="yes"/>
      <point x="488" y="-163" smooth="yes"/>
      <point x="488" y="-104" type="curve" smooth="yes"/>
      <point x="488" y="35"/>
      <point x="522" y="217"/>
      <point x="541" y="351" type="curve"/>
      <point x="607" y="351" type="line" smooth="yes"/>
      <point x="678" y="351"/>
      <point x="682" y="426"/>
      <point x="682" y="478" type="curve"/>
      <point x="606" y="446" smooth="yes"/>
      <point x="524" y="432" smooth="yes"/>
      <point x="456" y="432" type="curve" smooth="yes"/>
      <point x="304" y="432" smooth="yes"/>
      <point x="216" y="486" smooth="yes"/>
    </contour>
    <contour>
      <point x="258" y="50" type="curve" smooth="yes"/>
      <point x="198" y="50" smooth="yes"/>
      <point x="146" y="90" smooth="yes"/>
      <point x="146" y="173" type="curve" smooth="yes" name="hr03"/>
      <point x="146" y="330"/>
      <point x="323" y="351"/>
      <point x="421" y="352" type="curve"/>
      <point x="409" y="262" type="line" smooth="yes"/>
      <point x="394" y="147" smooth="yes"/>
      <point x="362" y="50" smooth="yes"/>
    </contour>
  </outline>
</glyph>
<glyph name="comma" format="1">
  <advance width="209"/>
  <unicode hex="002C"/>
  <outline>
    <contour>
      <point x="45" y="135" type="curve" name="hr00"/>
      <point x="54" y="110" smooth="yes"/>
      <point x="60" y="85" smooth="yes"/>
      <point x="60" y="60" type="curve" smooth="yes"/>
      <point x="60" y="2"/>
      <point x="33" y="-56"/>
      <point x="-19" y="-102" type="curve"/>
      <point x="10" y="-147" type="line"/>
      <point x="132" y="-84" smooth="yes"/>
      <point x="194" y="-1" smooth="yes"/>
      <point x="194" y="84" type="curve" smooth="yes"/>
      <point x="194" y="134" smooth="yes"/>
      <point x="157" y="146" smooth="yes"/>
      <point x="120" y="146" type="curve" smooth="yes"/>
      <point x="96" y="146"/>
      <point x="66" y="141"/>
    </contour>
  </outline>
</glyph>
<glyph name="four" format="1">
  <advance width="567"/>
  <unicode hex="0034"/>
  <outline>
    <contour>
      <point x="31" y="139" type="curve"/>
      <point x="31" y="139"/>
      <point x="186" y="132"/>
      <point x="314" y="128" type="curve"/>
      <point x="307" y="93" smooth="yes"/>
      <point x="302" y="66" smooth="yes"/>
      <point x="302" y="53" type="curve" smooth="yes"/>
      <point x="302" y="6" smooth="yes"/>
      <point x="327" y="-37" smooth="yes"/>
      <point x="403" y="-37" type="curve" smooth="yes"/>
      <point x="414" y="-37"/>
      <point x="431" y="-36"/>
      <point x="442" y="-35" type="curve"/>
      <point x="436" y="-7" smooth="yes"/>
      <point x="436" y="40" smooth="yes"/>
      <point x="436" y="67" type="curve" smooth="yes"/>
      <point x="436" y="87"/>
      <point x="436" y="106"/>
      <point x="437" y="125" type="curve"/>
      <point x="448" y="125" type="line" smooth="yes"/>
      <point x="507" y="125" smooth="yes"/>
      <point x="527" y="161" smooth="yes"/>
      <point x="527" y="206" type="curve" smooth="yes"/>
      <point x="527" y="222"/>
      <point x="525" y="240"/>
      <point x="520" y="258" type="curve"/>
      <point x="520" y="258"/>
      <point x="493" y="255"/>
      <point x="452" y="251" type="curve"/>
      <point x="458" y="295" smooth="yes"/>
      <point x="465" y="336" smooth="yes"/>
      <point x="465" y="379" type="curve" smooth="yes" name="hr01"/>
      <point x="465" y="420" smooth="yes"/>
      <point x="445" y="456" smooth="yes"/>
      <point x="381" y="456" type="curve" smooth="yes"/>
      <point x="371" y="456"/>
      <point x="357" y="455"/>
      <point x="347" y="454" type="curve"/>
      <point x="348" y="437" smooth="yes"/>
      <point x="349" y="420" smooth="yes"/>
      <point x="349" y="403" type="curve" smooth="yes"/>
      <point x="349" y="346"/>
      <point x="343" y="291"/>
      <point x="335" y="241" type="curve"/>
      <point x="270" y="236"/>
      <point x="195" y="232"/>
      <point x="123" y="230" type="curve"/>
      <point x="222" y="406" smooth="yes"/>
      <point x="365" y="575" smooth="yes"/>
      <point x="365" y="654" type="curve" smooth="yes"/>
      <point x="365" y="724"/>
      <point x="268" y="757"/>
      <point x="268" y="757" type="curve"/>
      <point x="238" y="603" smooth="yes"/>
      <point x="117" y="418" smooth="yes"/>
      <point x="8" y="232" type="curve" smooth="yes"/>
      <point x="5" y="227" smooth="yes"/>
      <point x="5" y="223" smooth="yes"/>
      <point x="5" y="219" type="curve" smooth="yes"/>
      <point x="5" y="167"/>
      <point x="31" y="139"/>
    </contour>
  </outline>
</glyph>
<glyph name="seven" format="1">
  <advance width="501"/>
  <unicode hex="0037"/>
  <outline>
    <contour>
      <point x="452" y="811" type="curve" name="hr00"/>
      <point x="446" y="778"/>
      <point x="433" y="739"/>
      <point x="416" y="697" type="curve"/>
      <point x="380" y="694" smooth="yes"/>
      <point x="344" y="693" smooth="yes"/>
      <point x="309" y="693" type="curve" smooth="yes"/>
      <point x="169" y="693"/>
      <point x="44" y="710"/>
      <point x="44" y="710" type="curve"/>
      <point x="40" y="702" smooth="yes"/>
      <point x="35" y="673" smooth="yes"/>
      <point x="35" y="643" type="curve" smooth="yes"/>
      <point x="35" y="601" smooth="yes"/>
      <point x="46" y="554" smooth="yes"/>
      <point x="87" y="554" type="curve" smooth="yes"/>
      <point x="141" y="554"/>
      <point x="294" y="583"/>
      <point x="370" y="598" type="curve"/>
      <point x="259" y="376" smooth="yes"/>
      <point x="78" y="108" smooth="yes"/>
      <point x="78" y="29" type="curve" smooth="yes"/>
      <point x="78" y="-57"/>
      <point x="192" y="-67"/>
      <point x="192" y="-67" type="curve"/>
      <point x="225" y="173" smooth="yes"/>
      <point x="521" y="612" smooth="yes"/>
      <point x="521" y="708" type="curve" smooth="yes"/>
      <point x="521" y="778"/>
      <point x="452" y="811"/>
    </contour>
  </outline>
</glyph>
<glyph name="eight" format="1">
  <advance width="577"/>
  <unicode hex="0038"/>
  <outline>
    <contour>
      <point x="40" y="138" type="curve" smooth="yes"/>
      <point x="40" y="51" smooth="yes"/>
      <point x="112" y="-33" smooth="yes"/>
      <point x="269" y="-33" type="curve" smooth="yes"/>
      <point x="422" y="-33" smooth="yes"/>
      <point x="520" y="46" smooth="yes"/>
      <point x="520" y="154" type="curve" smooth="yes"/>
      <point x="520" y="246"/>
      <point x="452" y="307"/>
      <point x="382" y="361" type="curve"/>
      <point x="478" y="403" smooth="yes"/>
      <point x="537" y="479" smooth="yes"/>
      <point x="537" y="573" type="curve" smooth="yes" name="hr01"/>
      <point x="537" y="645" smooth="yes"/>
      <point x="483" y="719" smooth="yes"/>
      <point x="346" y="719" type="curve" smooth="yes"/>
      <point x="194" y="719" smooth="yes"/>
      <point x="100" y="644" smooth="yes"/>
      <point x="100" y="530" type="curve" smooth="yes"/>
      <point x="100" y="446"/>
      <point x="153" y="386"/>
      <point x="213" y="335" type="curve"/>
      <point x="104" y="292" smooth="yes"/>
      <point x="40" y="217" smooth="yes"/>
    </contour>
    <contour>
      <point x="390" y="148" type="curve" smooth="yes"/>
      <point x="390" y="75" smooth="yes"/>
      <point x="318" y="39" smooth="yes"/>
      <point x="265" y="39" type="curve" smooth="yes"/>
      <point x="199" y="39" smooth="yes"/>
      <point x="165" y="84" smooth="yes"/>
      <point x="165" y="142" type="curve" smooth="yes"/>
      <point x="165" y="201"/>
      <point x="209" y="251"/>
      <point x="263" y="296" type="curve"/>
      <point x="329" y="246" smooth="yes"/>
      <point x="390" y="202" smooth="yes"/>
    </contour>
    <contour>
      <point x="229" y="541" type="curve" smooth="yes" name="hr03"/>
      <point x="229" y="606" smooth="yes"/>
      <point x="276" y="646" smooth="yes"/>
      <point x="334" y="646" type="curve" smooth="yes"/>
      <point x="400" y="646" smooth="yes"/>
      <point x="424" y="603" smooth="yes"/>
      <point x="424" y="557" type="curve" smooth="yes"/>
      <point x="424" y="500"/>
      <point x="390" y="448"/>
      <point x="331" y="400" type="curve"/>
      <point x="275" y="443" smooth="yes"/>
      <point x="229" y="486" smooth="yes"/>
    </contour>
  </outline>
</glyph>
<glyph name="nine" format="1">
  <advance width="601"/>
  <unicode hex="0039"/>
  <outline>
    <contour>
      <point x="235" y="-33" type="curve" smooth="yes"/>
      <point x="457" y="-33" smooth="yes"/>
      <point x="541" y="198" smooth="yes"/>
      <point x="541" y="400" type="curve" smooth="yes"/>
      <point x="541" y="627" smooth="yes"/>
      <point x="428" y="719" smooth="yes"/>
      <point x="305" y="719" type="curve" smooth="yes"/>
      <point x="178" y="719" smooth="yes"/>
      <point x="60" y="629" smooth="yes"/>
      <point x="60" y="477" type="curve" smooth="yes"/>
      <point x="60" y="357" smooth="yes"/>
      <point x="148" y="288" smooth="yes"/>
      <point x="256" y="288" type="curve" smooth="yes"/>
      <point x="313" y="288"/>
      <point x="367" y="306"/>
      <point x="413" y="330" type="curve"/>
      <point x="401" y="184" smooth="yes"/>
      <point x="355" y="48" smooth="yes"/>
      <point x="250" y="48" type="curve" smooth="yes"/>
      <point x="194" y="48" smooth="yes"/>
      <point x="167" y="92" smooth="yes"/>
      <point x="167" y="142" type="curve" smooth="yes"/>
      <point x="167" y="173"/>
      <point x="177" y="203"/>
      <point x="206" y="234" type="curve"/>
      <point x="193" y="238" smooth="yes"/>
      <point x="177" y="242" smooth="yes"/>
      <point x="156" y="242" type="curve" smooth="yes"/>
      <point x="96" y="242" smooth="yes"/>
      <point x="50" y="194" smooth="yes"/>
      <point x="50" y="122" type="curve" smooth="yes"/>
      <point x="50" y="24" smooth="yes"/>
      <point x="139" y="-33" smooth="yes"/>
    </contour>
    <contour>
      <point x="301" y="362" type="curve" smooth="yes"/>
      <point x="218" y="362" smooth="yes"/>
      <point x="189" y="425" smooth="yes"/>
      <point x="189" y="492" type="curve" smooth="yes" name="hr01"/>
      <point x="189" y="563" smooth="yes"/>
      <point x="226" y="638" smooth="yes"/>
      <point x="299" y="638" type="curve" smooth="yes"/>
      <point x="356" y="638" smooth="yes"/>
      <point x="416" y="606" smooth="yes"/>
      <point x="416" y="406" type="curve" smooth="yes"/>
      <point x="416" y="392" type="line"/>
      <point x="390" y="378" smooth="yes"/>
      <point x="349" y="362" smooth="yes"/>
    </contour>
  </outline>
</glyph>
<glyph name="E" format="1">
  <advance width="631"/>
  <unicode hex="0045"/>
  <outline>
    <contour>
      <point x="42" y="-12" type="curve" name="hr00"/>
      <point x="100" y="1" smooth="yes"/>
      <point x="157" y="5" smooth="yes"/>
      <point x="209" y="5" type="curve" smooth="yes"/>
      <point x="314" y="5" smooth="yes"/>
      <point x="401" y="-12" smooth="yes"/>
      <point x="447" y="-12" type="curve" smooth="yes"/>
      <point x="518" y="-12"/>
      <point x="570" y="44"/>
      <point x="582" y="144" type="curve"/>
      <point x="516" y="122"/>
      <point x="376" y="107"/>
      <point x="234" y="106" type="curve"/>
      <point x="235" y="184"/>
      <point x="242" y="262"/>
      <point x="250" y="334" type="curve"/>
      <point x="272" y="335" smooth="yes"/>
      <point x="293" y="335" smooth="yes"/>
      <point x="313" y="335" type="curve" smooth="yes"/>
      <point x="342" y="335" smooth="yes"/>
      <point x="373" y="334" smooth="yes"/>
      <point x="409" y="334" type="curve" smooth="yes"/>
      <point x="450" y="334" smooth="yes"/>
      <point x="477" y="357" smooth="yes"/>
      <point x="477" y="425" type="curve" smooth="yes"/>
      <point x="477" y="435"/>
      <point x="476" y="445"/>
      <point x="475" y="455" type="curve"/>
      <point x="442" y="428" smooth="yes"/>
      <point x="391" y="422" smooth="yes"/>
      <point x="340" y="422" type="curve" smooth="yes"/>
      <point x="320" y="422"/>
      <point x="290" y="423"/>
      <point x="261" y="424" type="curve"/>
      <point x="273" y="518"/>
      <point x="286" y="599"/>
      <point x="290" y="656" type="curve"/>
      <point x="362" y="658" smooth="yes"/>
      <point x="438" y="663" smooth="yes"/>
      <point x="488" y="673" type="curve" smooth="yes"/>
      <point x="553" y="685"/>
      <point x="605" y="717"/>
      <point x="616" y="799" type="curve"/>
      <point x="532" y="783" smooth="yes"/>
      <point x="436" y="775" smooth="yes"/>
      <point x="339" y="775" type="curve" smooth="yes"/>
      <point x="261" y="775"/>
      <point x="182" y="780"/>
      <point x="107" y="790" type="curve"/>
      <point x="103" y="778" smooth="yes"/>
      <point x="99" y="757" smooth="yes"/>
      <point x="99" y="731" type="curve" smooth="yes"/>
      <point x="99" y="675"/>
      <point x="105" y="658"/>
      <point x="156" y="655" type="curve"/>
      <point x="153" y="579"/>
      <point x="143" y="497"/>
      <point x="133" y="418" type="curve"/>
      <point x="95" y="407" smooth="yes"/>
      <point x="70" y="384" smooth="yes"/>
      <point x="70" y="332" type="curve" smooth="yes"/>
      <point x="70" y="321"/>
      <point x="71" y="310"/>
      <point x="72" y="299" type="curve"/>
      <point x="87" y="306"/>
      <point x="103" y="311"/>
      <point x="119" y="316" type="curve"/>
      <point x="104" y="213" smooth="yes"/>
      <point x="91" y="123" smooth="yes"/>
      <point x="91" y="69" type="curve" smooth="yes"/>
      <point x="91" y="66" type="line"/>
      <point x="57" y="39"/>
      <point x="46" y="5"/>
    </contour>
  </outline>
</glyph>
<glyph name="M" format="1">
  <advance width="927"/>
  <unicode hex="004D"/>
  <outline>
    <contour>
      <point x="454" y="286" type="curve" name="hr00"/>
      <point x="274" y="756" smooth="yes"/>
      <point x="256" y="803" smooth="yes"/>
      <point x="165" y="803" type="curve" smooth="yes"/>
      <point x="140" y="803"/>
      <point x="99" y="793"/>
      <point x="76" y="777" type="curve"/>
      <point x="96" y="758"/>
      <point x="117" y="732"/>
      <point x="137" y="700" type="curve"/>
      <point x="137" y="695" type="line" smooth="yes"/>
      <point x="137" y="521" smooth="yes"/>
      <point x="70" y="108" smooth="yes"/>
      <point x="70" y="58" type="curve" smooth="yes"/>
      <point x="70" y="24"/>
      <point x="87" y="-5"/>
      <point x="189" y="-5" type="curve"/>
      <point x="187" y="21" smooth="yes"/>
      <point x="185" y="50" smooth="yes"/>
      <point x="185" y="78" type="curve" smooth="yes"/>
      <point x="185" y="243"/>
      <point x="213" y="391"/>
      <point x="228" y="522" type="curve"/>
      <point x="275" y="414" smooth="yes"/>
      <point x="320" y="294" smooth="yes"/>
      <point x="360" y="191" type="curve" smooth="yes"/>
      <point x="363" y="183" smooth="yes"/>
      <point x="386" y="174" smooth="yes"/>
      <point x="416" y="174" type="curve" smooth="yes"/>
      <point x="436" y="174"/>
      <point x="460" y="178"/>
      <point x="483" y="188" type="curve"/>
      <point x="559" y="312"/>
      <point x="638" y="431"/>
      <point x="707" y="553" type="curve"/>
      <point x="700" y="472" smooth="yes"/>
      <point x="689" y="392" smooth="yes"/>
      <point x="679" y="322" type="curve" smooth="yes"/>
      <point x="668" y="241" smooth="yes"/>
      <point x="658" y="173" smooth="yes"/>
      <point x="658" y="129" type="curve" smooth="yes"/>
      <point x="658" y="46"/>
      <point x="687" y="-1"/>
      <point x="805" y="-31" type="curve"/>
      <point x="796" y="-10" smooth="yes"/>
      <point x="791" y="29" smooth="yes"/>
      <point x="791" y="78" type="curve" smooth="yes"/>
      <point x="791" y="180" smooth="yes"/>
      <point x="813" y="334" smooth="yes"/>
      <point x="832" y="464" type="curve" smooth="yes"/>
      <point x="846" y="560" smooth="yes"/>
      <point x="857" y="643" smooth="yes"/>
      <point x="857" y="684" type="curve" smooth="yes"/>
      <point x="857" y="753"/>
      <point x="834" y="796"/>
      <point x="723" y="802" type="curve"/>
      <point x="692" y="641"/>
      <point x="547" y="422"/>
    </contour>
  </outline>
</glyph>
<glyph name="N" format="1">
  <advance width="821"/>
  <unicode hex="004E"/>
  <outline>
    <contour>
      <point x="506" y="38" type="curve" smooth="yes"/>
      <point x="534" y="-5" smooth="yes"/>
      <point x="558" y="-21" smooth="yes"/>
      <point x="601" y="-21" type="curve" smooth="yes"/>
      <point x="635" y="-21"/>
      <point x="668" y="-10"/>
      <point x="713" y="19" type="curve"/>
      <point x="704" y="24"/>
      <point x="695" y="29"/>
      <point x="687" y="36" type="curve"/>
      <point x="685" y="53" smooth="yes"/>
      <point x="685" y="71" smooth="yes"/>
      <point x="685" y="90" type="curve" smooth="yes"/>
      <point x="685" y="265" smooth="yes"/>
      <point x="751" y="688" smooth="yes"/>
      <point x="751" y="740" type="curve" smooth="yes" name="hr01"/>
      <point x="751" y="773"/>
      <point x="735" y="801"/>
      <point x="633" y="801" type="curve"/>
      <point x="635" y="776" smooth="yes"/>
      <point x="637" y="747" smooth="yes"/>
      <point x="637" y="720" type="curve" smooth="yes"/>
      <point x="637" y="519"/>
      <point x="596" y="319"/>
      <point x="585" y="163" type="curve" name="hr02"/>
      <point x="533" y="250" smooth="yes"/>
      <point x="484" y="359" smooth="yes"/>
      <point x="434" y="461" type="curve" smooth="yes"/>
      <point x="359" y="612" smooth="yes"/>
      <point x="307" y="708" smooth="yes"/>
      <point x="283" y="742" type="curve" smooth="yes"/>
      <point x="250" y="788" smooth="yes"/>
      <point x="203" y="802" smooth="yes"/>
      <point x="152" y="802" type="curve" smooth="yes"/>
      <point x="126" y="802"/>
      <point x="95" y="794"/>
      <point x="60" y="773" type="curve"/>
      <point x="79" y="760"/>
      <point x="116" y="744"/>
      <point x="147" y="704" type="curve"/>
      <point x="147" y="695" type="line" smooth="yes"/>
      <point x="147" y="521" smooth="yes"/>
      <point x="80" y="108" smooth="yes"/>
      <point x="80" y="58" type="curve" smooth="yes"/>
      <point x="80" y="24"/>
      <point x="97" y="-5"/>
      <point x="199" y="-5" type="curve"/>
      <point x="197" y="21" smooth="yes"/>
      <point x="195" y="50" smooth="yes"/>
      <point x="195" y="78" type="curve" smooth="yes"/>
      <point x="195" y="256"/>
      <point x="228" y="414"/>
      <point x="242" y="552" type="curve"/>
      <point x="348" y="361" smooth="yes"/>
      <point x="469" y="95" smooth="yes"/>
    </contour>
  </outline>
</glyph>
<glyph name="P" format="1">
  <advance width="621"/>
  <unicode hex="0050"/>
  <outline>
    <contour>
      <point x="80" y="69" type="curve" smooth="yes"/>
      <point x="80" y="7" smooth="yes"/>
      <point x="111" y="-17" smooth="yes"/>
      <point x="187" y="-17" type="curve" smooth="yes"/>
      <point x="199" y="-17"/>
      <point x="213" y="-16"/>
      <point x="229" y="-15" type="curve"/>
      <point x="223" y="20" smooth="yes"/>
      <point x="223" y="52" smooth="yes"/>
      <point x="223" y="83" type="curve" smooth="yes"/>
      <point x="223" y="331" smooth="yes"/>
      <point x="280" y="573" smooth="yes"/>
      <point x="280" y="683" type="curve" smooth="yes" name="hr01"/>
      <point x="313" y="699" smooth="yes"/>
      <point x="344" y="705" smooth="yes"/>
      <point x="371" y="705" type="curve" smooth="yes"/>
      <point x="465" y="705" smooth="yes"/>
      <point x="509" y="642" smooth="yes"/>
      <point x="509" y="570" type="curve" smooth="yes"/>
      <point x="509" y="472"/>
      <point x="455" y="357"/>
      <point x="275" y="357" type="curve"/>
      <point x="278" y="315" type="line"/>
      <point x="298" y="312" smooth="yes"/>
      <point x="316" y="311" smooth="yes"/>
      <point x="335" y="311" type="curve" smooth="yes"/>
      <point x="531" y="311" smooth="yes"/>
      <point x="636" y="458" smooth="yes"/>
      <point x="636" y="589" type="curve" smooth="yes"/>
      <point x="636" y="694" smooth="yes"/>
      <point x="569" y="788" smooth="yes"/>
      <point x="430" y="788" type="curve" smooth="yes"/>
      <point x="382" y="788"/>
      <point x="322" y="776"/>
      <point x="267" y="746" type="curve"/>
      <point x="246" y="793"/>
      <point x="199" y="821"/>
      <point x="133" y="826" type="curve"/>
      <point x="142" y="806" smooth="yes"/>
      <point x="147" y="767" smooth="yes"/>
      <point x="147" y="716" type="curve" smooth="yes"/>
      <point x="147" y="493" smooth="yes"/>
      <point x="80" y="190" smooth="yes"/>
    </contour>
  </outline>
</glyph>
<glyph name="T" format="1">
  <advance width="543"/>
  <unicode hex="0054"/>
  <outline>
    <contour>
      <point x="20" y="721" type="curve" smooth="yes" name="hr00"/>
      <point x="20" y="682" smooth="yes"/>
      <point x="28" y="639" smooth="yes"/>
      <point x="66" y="639" type="curve" smooth="yes"/>
      <point x="106" y="639"/>
      <point x="164" y="640"/>
      <point x="225" y="643" type="curve"/>
      <point x="215" y="437" smooth="yes"/>
      <point x="169" y="225" smooth="yes"/>
      <point x="169" y="129" type="curve" smooth="yes"/>
      <point x="169" y="46"/>
      <point x="198" y="-1"/>
      <point x="316" y="-31" type="curve"/>
      <point x="307" y="-10" smooth="yes"/>
      <point x="302" y="29" smooth="yes"/>
      <point x="302" y="78" type="curve" smooth="yes"/>
      <point x="302" y="238"/>
      <point x="356" y="526"/>
      <point x="366" y="650" type="curve"/>
      <point x="407" y="653" smooth="yes"/>
      <point x="444" y="656" smooth="yes"/>
      <point x="474" y="660" type="curve" smooth="yes"/>
      <point x="542" y="668"/>
      <point x="591" y="708"/>
      <point x="603" y="799" type="curve"/>
      <point x="493" y="775" smooth="yes"/>
      <point x="379" y="763" smooth="yes"/>
      <point x="265" y="763" type="curve" smooth="yes"/>
      <point x="186" y="763"/>
      <point x="106" y="768"/>
      <point x="28" y="781" type="curve"/>
      <point x="24" y="768" smooth="yes"/>
      <point x="20" y="746" smooth="yes"/>
    </contour>
  </outline>
</glyph>
<glyph name="X" format="1">
  <advance width="671"/>
  <unicode hex="0058"/>
  <outline>
    <contour>
      <point x="559" y="-33" type="curve" smooth="yes"/>
      <point x="587" y="-33"/>
      <point x="608" y="-30"/>
      <point x="630" y="-22" type="curve"/>
      <point x="565" y="47"/>
      <point x="481" y="170"/>
      <point x="393" y="400" type="curve"/>
      <point x="529" y="532" smooth="yes"/>
      <point x="655" y="623" smooth="yes"/>
      <point x="655" y="715" type="curve" smooth="yes"/>
      <point x="655" y="742"/>
      <point x="633" y="784"/>
      <point x="575" y="809" type="curve"/>
      <point x="570" y="717"/>
      <point x="471" y="608"/>
      <point x="357" y="497" type="curve"/>
      <point x="301" y="659" smooth="yes"/>
      <point x="252" y="803" smooth="yes"/>
      <point x="178" y="803" type="curve" smooth="yes" name="hr01"/>
      <point x="149" y="803"/>
      <point x="109" y="792"/>
      <point x="75" y="776" type="curve"/>
      <point x="148" y="676"/>
      <point x="193" y="547"/>
      <point x="252" y="397" type="curve"/>
      <point x="127" y="279" smooth="yes"/>
      <point x="15" y="166" smooth="yes"/>
      <point x="15" y="81" type="curve" smooth="yes"/>
      <point x="15" y="44"/>
      <point x="42" y="6"/>
      <point x="99" y="-31" type="curve"/>
      <point x="143" y="100"/>
      <point x="215" y="206"/>
      <point x="293" y="295" type="curve"/>
      <point x="366" y="117" smooth="yes"/>
      <point x="445" y="-33" smooth="yes"/>
    </contour>
  </outline>
</glyph>
<glyph name="bracketleft" format="1">
  <advance width="379"/>
  <unicode hex="005B"/>
  <outline>
    <contour>
      <point x="329" y="783" type="line" smooth="yes"/>
      <point x="226" y="783" smooth="yes"/>
      <point x="175" y="761" smooth="yes"/>
      <point x="172" y="713" type="curve" smooth="yes"/>
      <point x="163" y="571" smooth="yes"/>
      <point x="164" y="539" smooth="yes"/>
      <point x="149" y="321" type="curve" smooth="yes"/>
      <point x="134" y="104" smooth="yes"/>
      <point x="115" y="-26" smooth="yes"/>
      <point x="115" y="-74" type="curve" smooth="yes" name="hr01"/>
      <point x="115" y="-119" smooth="yes"/>
      <point x="162" y="-139" smooth="yes"/>
      <point x="262" y="-139" type="curve" smooth="yes"/>
      <point x="332" y="-139" type="line" smooth="yes"/>
      <point x="356" y="-139"/>
      <point x="369" y="-116"/>
      <point x="372" y="-65" type="curve"/>
      <point x="349" y="-67"/>
      <point x="305" y="-70"/>
      <point x="261" y="-71" type="curve"/>
      <point x="261" y="-61" type="line" smooth="yes"/>
      <point x="261" y="63" smooth="yes"/>
      <point x="266" y="239" smooth="yes"/>
      <point x="272" y="321" type="curve" smooth="yes"/>
      <point x="278" y="405"/>
      <point x="300" y="594"/>
      <point x="318" y="715" type="curve"/>
      <point x="365" y="714"/>
      <point x="414" y="711"/>
      <point x="439" y="709" type="curve"/>
      <point x="436" y="760" smooth="yes"/>
      <point x="423" y="783" smooth="yes"/>
      <point x="399" y="783" type="curve" smooth="yes"/>
    </contour>
  </outline>
</glyph>
<glyph name="underscore" format="1">
  <advance width="463"/>
  <unicode hex="005F"/>
  <outline>
    <contour>
      <point x="368" y="7" type="curve" smooth="yes"/>
      <point x="282" y="7" smooth="yes"/>
      <point x="215" y="-7" smooth="yes"/>
      <point x="146" y="-7" type="curve" smooth="yes" name="hr01"/>
      <point x="96" y="-7"/>
      <point x="52" y="-4"/>
      <point x="1" y="4" type="curve"/>
      <point x="1" y="-4" smooth="yes"/>
      <point x="0" y="-11" smooth="yes"/>
      <point x="0" y="-19" type="curve" smooth="yes"/>
      <point x="0" y="-82" smooth="yes"/>
      <point x="12" y="-128" smooth="yes"/>
      <point x="95" y="-128" type="curve" smooth="yes"/>
      <point x="181" y="-128" smooth="yes"/>
      <point x="248" y="-114" smooth="yes"/>
      <point x="317" y="-114" type="curve" smooth="yes"/>
      <point x="367" y="-114"/>
      <point x="411" y="-117"/>
      <point x="462" y="-125" type="curve"/>
      <point x="462" y="-117" smooth="yes"/>
      <point x="463" y="-110" smooth="yes"/>
      <point x="463" y="-102" type="curve" smooth="yes"/>
      <point x="463" y="-39" smooth="yes"/>
      <point x="451" y="7" smooth="yes"/>
    </contour>
  </outline>
</glyph>
<glyph name="f" format="1">
  <advance width="408"/>
  <unicode hex="0066"/>
  <outline>
    <contour>
      <point x="409" y="584" type="curve" name="hr00"/>
      <point x="376" y="557"/>
      <point x="326" y="551"/>
      <point x="276" y="551" type="curve"/>
      <point x="305" y="701" smooth="yes"/>
      <point x="353" y="826" smooth="yes"/>
      <point x="426" y="826" type="curve" smooth="yes"/>
      <point x="451" y="826" smooth="yes"/>
      <point x="468" y="805" smooth="yes"/>
      <point x="468" y="771" type="curve" smooth="yes"/>
      <point x="468" y="731"/>
      <point x="439" y="685"/>
      <point x="421" y="671" type="curve"/>
      <point x="435" y="666" smooth="yes"/>
      <point x="450" y="664" smooth="yes"/>
      <point x="462" y="664" type="curve" smooth="yes"/>
      <point x="538" y="664" smooth="yes"/>
      <point x="582" y="724" smooth="yes"/>
      <point x="582" y="784" type="curve" smooth="yes"/>
      <point x="582" y="850" smooth="yes"/>
      <point x="524" y="900" smooth="yes"/>
      <point x="440" y="900" type="curve" smooth="yes"/>
      <point x="298" y="900"/>
      <point x="214" y="737"/>
      <point x="166" y="554" type="curve"/>
      <point x="93" y="553" smooth="yes"/>
      <point x="35" y="540" smooth="yes"/>
      <point x="35" y="461" type="curve" smooth="yes"/>
      <point x="35" y="450"/>
      <point x="36" y="439"/>
      <point x="37" y="428" type="curve"/>
      <point x="77" y="446"/>
      <point x="111" y="456"/>
      <point x="145" y="462" type="curve"/>
      <point x="115" y="312" smooth="yes"/>
      <point x="106" y="163" smooth="yes"/>
      <point x="106" y="93" type="curve" smooth="yes"/>
      <point x="106" y="-14"/>
      <point x="145" y="-81"/>
      <point x="246" y="-113" type="curve"/>
      <point x="231" y="-27" smooth="yes"/>
      <point x="230" y="-15" smooth="yes"/>
      <point x="230" y="63" type="curve" smooth="yes"/>
      <point x="230" y="134"/>
      <point x="237" y="307"/>
      <point x="262" y="470" type="curve"/>
      <point x="287" y="470" smooth="yes"/>
      <point x="313" y="469" smooth="yes"/>
      <point x="343" y="469" type="curve" smooth="yes"/>
      <point x="384" y="469" smooth="yes"/>
      <point x="411" y="486" smooth="yes"/>
      <point x="411" y="554" type="curve" smooth="yes"/>
      <point x="411" y="564"/>
      <point x="410" y="574"/>
    </contour>
  </outline>
</glyph>
<glyph name="j" format="1">
  <advance width="331"/>
  <unicode hex="006A"/>
  <outline>
    <contour>
      <point x="248" y="504" type="curve" smooth="yes"/>
      <point x="248" y="560" smooth="yes"/>
      <point x="223" y="583" smooth="yes"/>
      <point x="148" y="583" type="curve" smooth="yes"/>
      <point x="136" y="583"/>
      <point x="116" y="582"/>
      <point x="105" y="581" type="curve"/>
      <point x="108" y="532" smooth="yes"/>
      <point x="109" y="475" smooth="yes"/>
      <point x="109" y="412" type="curve" smooth="yes"/>
      <point x="109" y="124" smooth="yes"/>
      <point x="72" y="-260" smooth="yes"/>
      <point x="-64" y="-260" type="curve" smooth="yes"/>
      <point x="-89" y="-260" smooth="yes"/>
      <point x="-106" y="-239" smooth="yes"/>
      <point x="-106" y="-205" type="curve" smooth="yes"/>
      <point x="-106" y="-165"/>
      <point x="-77" y="-119"/>
      <point x="-59" y="-105" type="curve"/>
      <point x="-73" y="-100" smooth="yes"/>
      <point x="-88" y="-98" smooth="yes"/>
      <point x="-100" y="-98" type="curve" smooth="yes"/>
      <point x="-176" y="-98" smooth="yes"/>
      <point x="-220" y="-158" smooth="yes"/>
      <point x="-220" y="-218" type="curve" smooth="yes"/>
      <point x="-220" y="-284" smooth="yes"/>
      <point x="-162" y="-334" smooth="yes"/>
      <point x="-87" y="-334" type="curve" smooth="yes"/>
      <point x="210" y="-334" smooth="yes"/>
      <point x="248" y="246" smooth="yes"/>
    </contour>
    <contour>
      <point x="254" y="672" type="curve"/>
      <point x="262" y="696" smooth="yes"/>
      <point x="269" y="719" smooth="yes"/>
      <point x="269" y="743" type="curve" smooth="yes" name="hr01"/>
      <point x="269" y="804" smooth="yes"/>
      <point x="217" y="815" smooth="yes"/>
      <point x="166" y="815" type="curve" smooth="yes"/>
      <point x="149" y="815"/>
      <point x="131" y="813"/>
      <point x="117" y="811" type="curve"/>
      <point x="109" y="787" smooth="yes"/>
      <point x="102" y="764" smooth="yes"/>
      <point x="102" y="740" type="curve" smooth="yes"/>
      <point x="102" y="679" smooth="yes"/>
      <point x="154" y="668" smooth="yes"/>
      <point x="205" y="668" type="curve" smooth="yes"/>
      <point x="222" y="668"/>
      <point x="240" y="670"/>
    </contour>
  </outline>
</glyph>
<glyph name="y" format="1">
  <advance width="516"/>
  <unicode hex="0079"/>
  <outline>
    <contour>
      <point x="506" y="508" type="curve" smooth="yes" name="hr00"/>
      <point x="506" y="543"/>
      <point x="482" y="569"/>
      <point x="424" y="599" type="curve"/>
      <point x="424" y="500"/>
      <point x="324" y="289"/>
      <point x="246" y="138" type="curve"/>
      <point x="240" y="184" smooth="yes"/>
      <point x="229" y="287" smooth="yes"/>
      <point x="226" y="321" type="curve" smooth="yes"/>
      <point x="212" y="479" smooth="yes"/>
      <point x="197" y="586" smooth="yes"/>
      <point x="124" y="586" type="curve" smooth="yes"/>
      <point x="99" y="586"/>
      <point x="61" y="577"/>
      <point x="29" y="560" type="curve"/>
      <point x="95" y="452"/>
      <point x="118" y="170"/>
      <point x="162" y="-11" type="curve"/>
      <point x="126" y="-84" smooth="yes"/>
      <point x="82" y="-181" smooth="yes"/>
      <point x="82" y="-228" type="curve" smooth="yes"/>
      <point x="82" y="-272"/>
      <point x="102" y="-320"/>
      <point x="221" y="-342" type="curve"/>
      <point x="216" y="-313" smooth="yes"/>
      <point x="214" y="-283" smooth="yes"/>
      <point x="214" y="-256" type="curve" smooth="yes"/>
      <point x="214" y="95" smooth="yes"/>
      <point x="506" y="377" smooth="yes"/>
    </contour>
  </outline>
</glyph>
<glyph name="braceright" format="1">
  <advance width="372"/>
  <unicode hex="007D"/>
  <outline>
    <contour>
      <point x="120" y="473" type="curve" smooth="yes"/>
      <point x="120" y="392"/>
      <point x="160" y="322"/>
      <point x="198" y="314" type="curve"/>
      <point x="119" y="288" smooth="yes"/>
      <point x="90" y="163" smooth="yes"/>
      <point x="90" y="34" type="curve" smooth="yes" name="hr01"/>
      <point x="90" y="-35" smooth="yes"/>
      <point x="79" y="-68" smooth="yes"/>
      <point x="12" y="-68" type="curve" smooth="yes"/>
      <point x="0" y="-68"/>
      <point x="-14" y="-67"/>
      <point x="-30" y="-65" type="curve"/>
      <point x="-30" y="-114" smooth="yes"/>
      <point x="-14" y="-139" smooth="yes"/>
      <point x="36" y="-139" type="curve" smooth="yes"/>
      <point x="185" y="-139" smooth="yes"/>
      <point x="234" y="-80" smooth="yes"/>
      <point x="234" y="49" type="curve" smooth="yes"/>
      <point x="234" y="154"/>
      <point x="234" y="283"/>
      <point x="325" y="296" type="curve"/>
      <point x="327" y="332" type="line"/>
      <point x="273" y="334" smooth="yes"/>
      <point x="259" y="399" smooth="yes"/>
      <point x="259" y="476" type="curve" smooth="yes" name="hr02"/>
      <point x="259" y="543" smooth="yes"/>
      <point x="278" y="604" smooth="yes"/>
      <point x="278" y="654" type="curve" smooth="yes" name="hr03"/>
      <point x="278" y="733" smooth="yes"/>
      <point x="234" y="783" smooth="yes"/>
      <point x="95" y="783" type="curve" smooth="yes"/>
      <point x="38" y="783"/>
      <point x="22" y="767"/>
      <point x="22" y="709" type="curve"/>
      <point x="38" y="712" smooth="yes"/>
      <point x="52" y="713" smooth="yes"/>
      <point x="64" y="713" type="curve" smooth="yes"/>
      <point x="121" y="713" smooth="yes"/>
      <point x="133" y="683" smooth="yes"/>
      <point x="133" y="636" type="curve" smooth="yes"/>
      <point x="133" y="592" smooth="yes"/>
      <point x="120" y="533" smooth="yes"/>
    </contour>
  </outline>
</glyph>
<glyph name="currency" format="1">
  <advance width="604"/>
  <unicode hex="00A4"/>
  <outline>
    <contour>
      <point x="335" y="581" type="curve" smooth="yes"/>
      <point x="308" y="581"/>
      <point x="284" y="577"/>
      <point x="262" y="571" type="curve"/>
      <point x="214" y="663" smooth="yes"/>
      <point x="185" y="689" smooth="yes"/>
      <point x="146" y="689" type="curve" smooth="yes"/>
      <point x="128" y="689"/>
      <point x="111" y="683"/>
      <point x="100" y="673" type="curve"/>
      <point x="124" y="636"/>
      <point x="152" y="586"/>
      <point x="181" y="529" type="curve"/>
      <point x="129" y="485" smooth="yes"/>
      <point x="102" y="420" smooth="yes"/>
      <point x="102" y="356" type="curve" smooth="yes"/>
      <point x="102" y="309"/>
      <point x="112" y="273"/>
      <point x="130" y="246" type="curve"/>
      <point x="85" y="196" smooth="yes"/>
      <point x="62" y="166" smooth="yes"/>
      <point x="62" y="137" type="curve" smooth="yes" name="hr01"/>
      <point x="62" y="91"/>
      <point x="115" y="60"/>
      <point x="122" y="56" type="curve"/>
      <point x="145" y="96"/>
      <point x="179" y="141"/>
      <point x="217" y="186" type="curve"/>
      <point x="234" y="182" smooth="yes"/>
      <point x="252" y="180" smooth="yes"/>
      <point x="269" y="180" type="curve" smooth="yes"/>
      <point x="295" y="180"/>
      <point x="319" y="183"/>
      <point x="341" y="189" type="curve"/>
      <point x="386" y="94" smooth="yes"/>
      <point x="414" y="51" smooth="yes"/>
      <point x="457" y="51" type="curve" smooth="yes"/>
      <point x="494" y="51"/>
      <point x="527" y="80"/>
      <point x="533" y="84" type="curve"/>
      <point x="498" y="124"/>
      <point x="463" y="179"/>
      <point x="431" y="238" type="curve"/>
      <point x="478" y="281" smooth="yes"/>
      <point x="502" y="342" smooth="yes"/>
      <point x="502" y="404" type="curve" smooth="yes"/>
      <point x="502" y="433"/>
      <point x="497" y="459"/>
      <point x="490" y="480" type="curve"/>
      <point x="546" y="542" smooth="yes"/>
      <point x="562" y="570" smooth="yes"/>
      <point x="562" y="602" type="curve" smooth="yes" name="hr02"/>
      <point x="562" y="631"/>
      <point x="546" y="653"/>
      <point x="528" y="664" type="curve"/>
      <point x="505" y="633"/>
      <point x="472" y="594"/>
      <point x="434" y="553" type="curve"/>
      <point x="405" y="572" smooth="yes"/>
      <point x="369" y="581" smooth="yes"/>
    </contour>
    <contour>
      <point x="314" y="511" type="curve" smooth="yes"/>
      <point x="353" y="511" smooth="yes"/>
      <point x="392" y="477" smooth="yes"/>
      <point x="392" y="385" type="curve" smooth="yes"/>
      <point x="392" y="319" smooth="yes"/>
      <point x="359" y="250" smooth="yes"/>
      <point x="291" y="250" type="curve" smooth="yes"/>
      <point x="253" y="250" smooth="yes"/>
      <point x="214" y="279" smooth="yes"/>
      <point x="214" y="376" type="curve" smooth="yes"/>
      <point x="214" y="442" smooth="yes"/>
      <point x="246" y="511" smooth="yes"/>
    </contour>
  </outline>
</glyph>
<glyph name="copyright" format="1">
  <advance width="667"/>
  <unicode hex="00A9"/>
  <outline>
    <contour>
      <point x="421" y="485" type="curve" name="hr00"/>
      <point x="396" y="449" smooth="yes"/>
      <point x="363" y="431" smooth="yes"/>
      <point x="337" y="431" type="curve" smooth="yes"/>
      <point x="298" y="431" smooth="yes"/>
      <point x="266" y="465" smooth="yes"/>
      <point x="266" y="543" type="curve" smooth="yes"/>
      <point x="266" y="622" smooth="yes"/>
      <point x="300" y="715" smooth="yes"/>
      <point x="358" y="715" type="curve" smooth="yes"/>
      <point x="379" y="715" smooth="yes"/>
      <point x="387" y="697" smooth="yes"/>
      <point x="387" y="677" type="curve" smooth="yes"/>
      <point x="387" y="651"/>
      <point x="374" y="615"/>
      <point x="360" y="599" type="curve"/>
      <point x="374" y="595" smooth="yes"/>
      <point x="385" y="592" smooth="yes"/>
      <point x="394" y="592" type="curve" smooth="yes"/>
      <point x="438" y="592" smooth="yes"/>
      <point x="467" y="626" smooth="yes"/>
      <point x="467" y="672" type="curve" smooth="yes"/>
      <point x="467" y="713" smooth="yes"/>
      <point x="438" y="758" smooth="yes"/>
      <point x="364" y="758" type="curve" smooth="yes"/>
      <point x="240" y="758" smooth="yes"/>
      <point x="178" y="655" smooth="yes"/>
      <point x="178" y="542" type="curve" smooth="yes"/>
      <point x="178" y="429" smooth="yes"/>
      <point x="241" y="378" smooth="yes"/>
      <point x="312" y="378" type="curve" smooth="yes"/>
      <point x="355" y="378"/>
      <point x="415" y="396"/>
      <point x="453" y="465" type="curve"/>
      <point x="453" y="477"/>
      <point x="444" y="485"/>
    </contour>
    <contour>
      <point x="370" y="861" type="curve" smooth="yes"/>
      <point x="149" y="861" smooth="yes"/>
      <point x="32" y="711" smooth="yes"/>
      <point x="32" y="555" type="curve" smooth="yes"/>
      <point x="32" y="344" smooth="yes"/>
      <point x="170" y="273" smooth="yes"/>
      <point x="297" y="273" type="curve" smooth="yes"/>
      <point x="518" y="273" smooth="yes"/>
      <point x="635" y="423" smooth="yes"/>
      <point x="635" y="579" type="curve" smooth="yes"/>
      <point x="635" y="790" smooth="yes"/>
      <point x="497" y="861" smooth="yes"/>
    </contour>
    <contour>
      <point x="368" y="814" type="curve" smooth="yes"/>
      <point x="465" y="814" smooth="yes"/>
      <point x="570" y="755" smooth="yes"/>
      <point x="570" y="579" type="curve" smooth="yes"/>
      <point x="570" y="447" smooth="yes"/>
      <point x="478" y="320" smooth="yes"/>
      <point x="299" y="320" type="curve" smooth="yes"/>
      <point x="202" y="320" smooth="yes"/>
      <point x="97" y="379" smooth="yes"/>
      <point x="97" y="555" type="curve" smooth="yes"/>
      <point x="97" y="687" smooth="yes"/>
      <point x="189" y="814" smooth="yes"/>
    </contour>
  </outline>
</glyph>
<glyph name="ordfeminine" format="1">
  <advance width="391"/>
  <unicode hex="00AA"/>
  <outline>
    <contour>
      <point x="191" y="777" type="curve" smooth="yes"/>
      <point x="85" y="777" smooth="yes"/>
      <point x="19" y="652" smooth="yes"/>
      <point x="19" y="549" type="curve" smooth="yes"/>
      <point x="19" y="467" smooth="yes"/>
      <point x="62" y="429" smooth="yes"/>
      <point x="114" y="429" type="curve" smooth="yes"/>
      <point x="158" y="429"/>
      <point x="207" y="457"/>
      <point x="240" y="507" type="curve"/>
      <point x="246" y="455"/>
      <point x="281" y="425"/>
      <point x="350" y="414" type="curve" name="hr01"/>
      <point x="333" y="448" smooth="yes"/>
      <point x="326" y="471" smooth="yes"/>
      <point x="326" y="511" type="curve" smooth="yes"/>
      <point x="326" y="586" smooth="yes"/>
      <point x="355" y="675" smooth="yes"/>
      <point x="355" y="726" type="curve" smooth="yes"/>
      <point x="355" y="773" smooth="yes"/>
      <point x="327" y="784" smooth="yes"/>
      <point x="283" y="784" type="curve" smooth="yes"/>
      <point x="249" y="784" type="line"/>
      <point x="249" y="763" type="line"/>
      <point x="232" y="772" smooth="yes"/>
      <point x="206" y="777" smooth="yes"/>
    </contour>
    <contour>
      <point x="127" y="553" type="curve" smooth="yes"/>
      <point x="127" y="618"/>
      <point x="169" y="712"/>
      <point x="250" y="749" type="curve"/>
      <point x="251" y="735" smooth="yes"/>
      <point x="252" y="720" smooth="yes"/>
      <point x="252" y="708" type="curve" smooth="yes"/>
      <point x="252" y="606" smooth="yes"/>
      <point x="205" y="498" smooth="yes"/>
      <point x="156" y="498" type="curve" smooth="yes" name="hr02"/>
      <point x="136" y="498" smooth="yes"/>
      <point x="127" y="522" smooth="yes"/>
    </contour>
  </outline>
</glyph>
<glyph name="cedilla" format="1">
  <advance width="292"/>
  <unicode hex="00B8"/>
  <outline>
    <contour>
      <point x="110" y="-40" type="curve" name="hr00"/>
      <point x="100" y="-52"/>
      <point x="95" y="-61"/>
      <point x="94" y="-77" type="curve"/>
      <point x="116" y="-85" smooth="yes"/>
      <point x="153" y="-101" smooth="yes"/>
      <point x="153" y="-146" type="curve" smooth="yes"/>
      <point x="153" y="-188"/>
      <point x="115" y="-226"/>
      <point x="50" y="-238" type="curve"/>
      <point x="50" y="-277"/>
      <point x="69" y="-310"/>
      <point x="104" y="-323" type="curve"/>
      <point x="190" y="-298" smooth="yes"/>
      <point x="242" y="-227" smooth="yes"/>
      <point x="242" y="-152" type="curve" smooth="yes"/>
      <point x="242" y="-94"/>
      <point x="205" y="-46"/>
    </contour>
  </outline>
</glyph>
<glyph name="Thorn" format="1">
  <advance width="621"/>
  <unicode hex="00DE"/>
  <outline>
    <contour>
      <point x="80" y="69" type="curve" smooth="yes"/>
      <point x="80" y="7" smooth="yes"/>
      <point x="111" y="-17" smooth="yes"/>
      <point x="187" y="-17" type="curve" smooth="yes"/>
      <point x="199" y="-17"/>
      <point x="213" y="-16"/>
      <point x="229" y="-15" type="curve"/>
      <point x="223" y="20" smooth="yes"/>
      <point x="223" y="52" smooth="yes"/>
      <point x="223" y="83" type="curve" smooth="yes"/>
      <point x="223" y="250"/>
      <point x="249" y="415"/>
      <point x="266" y="538" type="curve"/>
      <point x="301" y="553" smooth="yes"/>
      <point x="334" y="560" smooth="yes"/>
      <point x="362" y="560" type="curve" smooth="yes"/>
      <point x="456" y="560" smooth="yes"/>
      <point x="500" y="497" smooth="yes"/>
      <point x="500" y="425" type="curve" smooth="yes"/>
      <point x="500" y="327"/>
      <point x="446" y="212"/>
      <point x="266" y="212" type="curve"/>
      <point x="269" y="170" type="line"/>
      <point x="289" y="167" smooth="yes"/>
      <point x="307" y="166" smooth="yes"/>
      <point x="326" y="166" type="curve" smooth="yes"/>
      <point x="522" y="166" smooth="yes"/>
      <point x="627" y="313" smooth="yes"/>
      <point x="627" y="444" type="curve" smooth="yes"/>
      <point x="627" y="549" smooth="yes"/>
      <point x="560" y="643" smooth="yes"/>
      <point x="421" y="643" type="curve" smooth="yes"/>
      <point x="377" y="643"/>
      <point x="325" y="633"/>
      <point x="275" y="610" type="curve"/>
      <point x="278" y="638" smooth="yes"/>
      <point x="280" y="663" smooth="yes"/>
      <point x="280" y="683" type="curve" smooth="yes" name="hr01"/>
      <point x="280" y="768"/>
      <point x="226" y="819"/>
      <point x="133" y="826" type="curve"/>
      <point x="142" y="806" smooth="yes"/>
      <point x="147" y="767" smooth="yes"/>
      <point x="147" y="716" type="curve" smooth="yes"/>
      <point x="147" y="493" smooth="yes"/>
      <point x="80" y="190" smooth="yes"/>
    </contour>
  </outline>
</glyph>
<glyph name="eth" format="1">
  <advance width="597"/>
  <unicode hex="00F0"/>
  <outline>
    <contour>
      <point x="317" y="899" type="curve" smooth="yes"/>
      <point x="227" y="899" smooth="yes"/>
      <point x="148" y="856" smooth="yes"/>
      <point x="148" y="784" type="curve" smooth="yes"/>
      <point x="148" y="744"/>
      <point x="185" y="709"/>
      <point x="234" y="709" type="curve"/>
      <point x="234" y="785" smooth="yes"/>
      <point x="268" y="825" smooth="yes"/>
      <point x="322" y="825" type="curve" smooth="yes"/>
      <point x="436" y="825"/>
      <point x="448" y="589"/>
      <point x="448" y="501" type="curve"/>
      <point x="403" y="528" smooth="yes"/>
      <point x="354" y="541" smooth="yes"/>
      <point x="305" y="541" type="curve" smooth="yes"/>
      <point x="169" y="541" smooth="yes"/>
      <point x="40" y="440" smooth="yes"/>
      <point x="40" y="247" type="curve" smooth="yes" name="hr01"/>
      <point x="40" y="65" smooth="yes"/>
      <point x="152" y="-15" smooth="yes"/>
      <point x="256" y="-15" type="curve" smooth="yes"/>
      <point x="471" y="-15" smooth="yes"/>
      <point x="568" y="247" smooth="yes"/>
      <point x="568" y="494" type="curve" smooth="yes"/>
      <point x="568" y="669" smooth="yes"/>
      <point x="498" y="899" smooth="yes"/>
    </contour>
    <contour>
      <point x="286" y="57" type="curve" smooth="yes"/>
      <point x="213" y="57" smooth="yes"/>
      <point x="178" y="134" smooth="yes"/>
      <point x="178" y="233" type="curve" smooth="yes"/>
      <point x="178" y="376" smooth="yes"/>
      <point x="250" y="474" smooth="yes"/>
      <point x="342" y="474" type="curve" smooth="yes"/>
      <point x="373" y="474"/>
      <point x="416" y="462"/>
      <point x="447" y="438" type="curve"/>
      <point x="440" y="245" smooth="yes"/>
      <point x="387" y="57" smooth="yes"/>
    </contour>
    <component  base="eslash" xScale="0.9" yScale="0.9" xOffset="330" yOffset="270"/>
  </outline>
</glyph>
<glyph name="Eng" format="1">
  <advance width="821"/>
  <unicode hex="014A"/>
  <outline>
    <contour>
      <point x="80" y="58" type="curve" smooth="yes"/>
      <point x="80" y="24"/>
      <point x="97" y="-5"/>
      <point x="199" y="-5" type="curve"/>
      <point x="197" y="21" smooth="yes"/>
      <point x="195" y="50" smooth="yes"/>
      <point x="195" y="78" type="curve" smooth="yes"/>
      <point x="195" y="257"/>
      <point x="228" y="415"/>
      <point x="242" y="553" type="curve"/>
      <point x="341" y="376" smooth="yes"/>
      <point x="447" y="142" smooth="yes"/>
      <point x="483" y="86" type="curve" smooth="yes"/>
      <point x="511" y="42"/>
      <point x="536" y="20"/>
      <point x="566" y="9" type="curve"/>
      <point x="531" y="-145" smooth="yes"/>
      <point x="482" y="-260" smooth="yes"/>
      <point x="423" y="-260" type="curve" smooth="yes"/>
      <point x="398" y="-260" smooth="yes"/>
      <point x="381" y="-239" smooth="yes"/>
      <point x="381" y="-205" type="curve" smooth="yes"/>
      <point x="381" y="-165"/>
      <point x="410" y="-119"/>
      <point x="428" y="-105" type="curve"/>
      <point x="414" y="-100" smooth="yes"/>
      <point x="399" y="-98" smooth="yes"/>
      <point x="387" y="-98" type="curve" smooth="yes"/>
      <point x="311" y="-98" smooth="yes"/>
      <point x="267" y="-158" smooth="yes"/>
      <point x="267" y="-218" type="curve" smooth="yes"/>
      <point x="267" y="-284" smooth="yes"/>
      <point x="325" y="-334" smooth="yes"/>
      <point x="400" y="-334" type="curve" smooth="yes"/>
      <point x="700" y="-334" smooth="yes"/>
      <point x="750" y="555" smooth="yes"/>
      <point x="750" y="728" type="curve" smooth="yes"/>
      <point x="750" y="781" smooth="yes"/>
      <point x="749" y="803" smooth="yes"/>
      <point x="676" y="803" type="curve" smooth="yes"/>
      <point x="664" y="803"/>
      <point x="644" y="802"/>
      <point x="633" y="801" type="curve"/>
      <point x="636" y="752" smooth="yes"/>
      <point x="637" y="695" smooth="yes"/>
      <point x="637" y="632" type="curve" smooth="yes"/>
      <point x="637" y="502"/>
      <point x="621" y="309"/>
      <point x="591" y="135" type="curve"/>
      <point x="537" y="228" smooth="yes"/>
      <point x="486" y="356" smooth="yes"/>
      <point x="434" y="461" type="curve" smooth="yes"/>
      <point x="359" y="612" smooth="yes"/>
      <point x="307" y="708" smooth="yes"/>
      <point x="283" y="742" type="curve" smooth="yes"/>
      <point x="250" y="788" smooth="yes"/>
      <point x="203" y="802" smooth="yes"/>
      <point x="152" y="802" type="curve" smooth="yes" name="hr01"/>
      <point x="126" y="802"/>
      <point x="95" y="794"/>
      <point x="60" y="773" type="curve"/>
      <point x="79" y="760"/>
      <point x="116" y="744"/>
      <point x="147" y="704" type="curve"/>
      <point x="147" y="695" type="line" smooth="yes"/>
      <point x="147" y="521" smooth="yes"/>
      <point x="80" y="108" smooth="yes"/>
    </contour>
  </outline>
</glyph>
<glyph name="eng" format="1">
  <advance width="620"/>
  <unicode hex="014B"/>
  <outline>
    <contour>
      <point x="558" y="435" type="curve"/>
      <point x="558" y="521" smooth="yes"/>
      <point x="527" y="577" smooth="yes"/>
      <point x="449" y="577" type="curve" smooth="yes"/>
      <point x="360" y="577"/>
      <point x="260" y="464"/>
      <point x="214" y="309" type="curve"/>
      <point x="221" y="351" smooth="yes"/>
      <point x="226" y="391" smooth="yes"/>
      <point x="226" y="427" type="curve" smooth="yes"/>
      <point x="226" y="504"/>
      <point x="199" y="565"/>
      <point x="95" y="598" type="curve"/>
      <point x="107" y="551" smooth="yes"/>
      <point x="112" y="500" smooth="yes"/>
      <point x="112" y="448" type="curve" smooth="yes"/>
      <point x="112" y="315" smooth="yes"/>
      <point x="70" y="142" smooth="yes"/>
      <point x="70" y="84" type="curve" smooth="yes" name="hr01"/>
      <point x="70" y="22" smooth="yes"/>
      <point x="101" y="-2" smooth="yes"/>
      <point x="177" y="-2" type="curve" smooth="yes"/>
      <point x="189" y="-2"/>
      <point x="203" y="-1"/>
      <point x="219" y="0" type="curve"/>
      <point x="213" y="35" smooth="yes"/>
      <point x="213" y="67" smooth="yes"/>
      <point x="213" y="98" type="curve" smooth="yes"/>
      <point x="213" y="328" smooth="yes"/>
      <point x="324" y="473" smooth="yes"/>
      <point x="384" y="473" type="curve" smooth="yes"/>
      <point x="410" y="473" smooth="yes"/>
      <point x="424" y="450" smooth="yes"/>
      <point x="424" y="407" type="curve" smooth="yes"/>
      <point x="424" y="114" smooth="yes"/>
      <point x="340" y="-260" smooth="yes"/>
      <point x="249" y="-260" type="curve" smooth="yes"/>
      <point x="224" y="-260" smooth="yes"/>
      <point x="207" y="-239" smooth="yes"/>
      <point x="207" y="-205" type="curve" smooth="yes"/>
      <point x="207" y="-165"/>
      <point x="236" y="-119"/>
      <point x="254" y="-105" type="curve"/>
      <point x="240" y="-100" smooth="yes"/>
      <point x="225" y="-98" smooth="yes"/>
      <point x="213" y="-98" type="curve" smooth="yes"/>
      <point x="137" y="-98" smooth="yes"/>
      <point x="93" y="-158" smooth="yes"/>
      <point x="93" y="-218" type="curve" smooth="yes" name="hr02"/>
      <point x="93" y="-284" smooth="yes"/>
      <point x="151" y="-334" smooth="yes"/>
      <point x="226" y="-334" type="curve" smooth="yes" name="hr03"/>
      <point x="437" y="-334" smooth="yes"/>
      <point x="558" y="110" smooth="yes"/>
    </contour>
  </outline>
</glyph>
<glyph name="dotlessj" format="1">
  <advance width="331"/>
  <unicode hex="0237"/>
  <outline>
    <contour>
      <point x="248" y="504" type="curve" smooth="yes" name="hr00"/>
      <point x="248" y="560" smooth="yes"/>
      <point x="223" y="583" smooth="yes"/>
      <point x="148" y="583" type="curve" smooth="yes"/>
      <point x="136" y="583"/>
      <point x="116" y="582"/>
      <point x="105" y="581" type="curve"/>
      <point x="108" y="532" smooth="yes"/>
      <point x="109" y="475" smooth="yes"/>
      <point x="109" y="412" type="curve" smooth="yes"/>
      <point x="109" y="124" smooth="yes"/>
      <point x="72" y="-260" smooth="yes"/>
      <point x="-64" y="-260" type="curve" smooth="yes"/>
      <point x="-89" y="-260" smooth="yes"/>
      <point x="-106" y="-239" smooth="yes"/>
      <point x="-106" y="-205" type="curve" smooth="yes"/>
      <point x="-106" y="-165"/>
      <point x="-77" y="-119"/>
      <point x="-59" y="-105" type="curve"/>
      <point x="-73" y="-100" smooth="yes"/>
      <point x="-88" y="-98" smooth="yes"/>
      <point x="-100" y="-98" type="curve" smooth="yes"/>
      <point x="-176" y="-98" smooth="yes"/>
      <point x="-220" y="-158" smooth="yes"/>
      <point x="-220" y="-218" type="curve" smooth="yes"/>
      <point x="-220" y="-284" smooth="yes"/>
      <point x="-162" y="-334" smooth="yes"/>
      <point x="-87" y="-334" type="curve" smooth="yes"/>
      <point x="210" y="-334" smooth="yes"/>
      <point x="248" y="246" smooth="yes"/>
    </contour>
  </outline>
</glyph>
<glyph name="circumflex" format="1">
  <advance width="450"/>
  <unicode hex="02C6"/>
  <outline>
    <contour>
      <point x="370" y="637" type="curve" smooth="yes" name="hr00"/>
      <point x="392" y="637"/>
      <point x="412" y="639"/>
      <point x="442" y="648" type="curve"/>
      <point x="338" y="764"/>
      <point x="381" y="873"/>
      <point x="278" y="873" type="curve"/>
      <point x="235" y="823"/>
      <point x="210" y="783"/>
      <point x="90" y="709" type="curve"/>
      <point x="91" y="660"/>
      <point x="122" y="633"/>
      <point x="141" y="620" type="curve"/>
      <point x="211" y="660"/>
      <point x="245" y="701"/>
      <point x="275" y="747" type="curve"/>
      <point x="296" y="662" smooth="yes"/>
      <point x="309" y="637" smooth="yes"/>
    </contour>
  </outline>
</glyph>
<glyph name="breve" format="1">
  <advance width="355"/>
  <unicode hex="02D8"/>
  <outline>
    <contour>
      <point x="20" y="798" type="curve"/>
      <point x="20" y="690" smooth="yes"/>
      <point x="94" y="644" smooth="yes"/>
      <point x="169" y="644" type="curve" smooth="yes"/>
      <point x="244" y="644"/>
      <point x="312" y="687"/>
      <point x="335" y="761" type="curve"/>
      <point x="335" y="792"/>
      <point x="301" y="827"/>
      <point x="263" y="827" type="curve"/>
      <point x="259" y="777" smooth="yes"/>
      <point x="205" y="739" smooth="yes"/>
      <point x="159" y="739" type="curve" smooth="yes"/>
      <point x="121" y="739"/>
      <point x="90" y="759"/>
      <point x="90" y="799" type="curve"/>
      <point x="82" y="808" smooth="yes"/>
      <point x="71" y="812" smooth="yes"/>
      <point x="60" y="812" type="curve" smooth="yes" name="hr01"/>
      <point x="45" y="812"/>
      <point x="31" y="806"/>
    </contour>
  </outline>
</glyph>
<glyph name="zeroinferior" format="1">
  <advance width="406"/>
  <unicode hex="2080"/>
  <outline>
    <contour>
      <point x="227" y="212" type="curve" smooth="yes"/>
      <point x="253" y="212" smooth="yes"/>
      <point x="276" y="180" smooth="yes"/>
      <point x="276" y="81" type="curve" smooth="yes"/>
      <point x="276" y="-8" smooth="yes"/>
      <point x="246" y="-98" smooth="yes"/>
      <point x="190" y="-98" type="curve" smooth="yes"/>
      <point x="148" y="-98" smooth="yes"/>
      <point x="129" y="-39" smooth="yes"/>
      <point x="129" y="32" type="curve" smooth="yes"/>
      <point x="129" y="119" smooth="yes"/>
      <point x="172" y="212" smooth="yes"/>
    </contour>
    <contour>
      <point x="181" y="282" type="curve" name="hr01"/>
      <point x="90" y="256" smooth="yes"/>
      <point x="30" y="156" smooth="yes"/>
      <point x="30" y="35" type="curve" smooth="yes"/>
      <point x="30" y="-102" smooth="yes"/>
      <point x="105" y="-163" smooth="yes"/>
      <point x="177" y="-163" type="curve" smooth="yes"/>
      <point x="317" y="-163" smooth="yes"/>
      <point x="376" y="-16" smooth="yes"/>
      <point x="376" y="108" type="curve" smooth="yes"/>
      <point x="376" y="196" smooth="yes"/>
      <point x="334" y="273" smooth="yes"/>
      <point x="256" y="273" type="curve" smooth="yes" name="hr02"/>
      <point x="243" y="273"/>
      <point x="229" y="270"/>
      <point x="213" y="264" type="curve"/>
      <point x="208" y="275"/>
      <point x="197" y="282"/>
    </contour>
  </outline>
</glyph>
<glyph name="threeinferior" format="1">
  <advance width="366"/>
  <unicode hex="2083"/>
  <outline>
    <contour>
      <point x="310" y="179" type="curve" smooth="yes" name="hr00"/>
      <point x="310" y="252" smooth="yes"/>
      <point x="244" y="286" smooth="yes"/>
      <point x="177" y="286" type="curve" smooth="yes"/>
      <point x="88" y="286" smooth="yes"/>
      <point x="48" y="235" smooth="yes"/>
      <point x="48" y="189" type="curve" smooth="yes"/>
      <point x="48" y="141" smooth="yes"/>
      <point x="84" y="116" smooth="yes"/>
      <point x="125" y="116" type="curve" smooth="yes"/>
      <point x="134" y="116"/>
      <point x="143" y="117"/>
      <point x="152" y="120" type="curve"/>
      <point x="134" y="143" smooth="yes"/>
      <point x="130" y="165" smooth="yes"/>
      <point x="130" y="180" type="curve" smooth="yes"/>
      <point x="130" y="209" smooth="yes"/>
      <point x="150" y="224" smooth="yes"/>
      <point x="172" y="224" type="curve" smooth="yes"/>
      <point x="195" y="224" smooth="yes"/>
      <point x="219" y="207" smooth="yes"/>
      <point x="219" y="173" type="curve" smooth="yes"/>
      <point x="219" y="121"/>
      <point x="181" y="84"/>
      <point x="103" y="72" type="curve"/>
      <point x="108" y="42" type="line"/>
      <point x="118" y="43"/>
      <point x="127" y="44"/>
      <point x="137" y="46" type="curve"/>
      <point x="195" y="39" smooth="yes"/>
      <point x="220" y="-2" smooth="yes"/>
      <point x="220" y="-36" type="curve" smooth="yes"/>
      <point x="220" y="-84" smooth="yes"/>
      <point x="185" y="-107" smooth="yes"/>
      <point x="152" y="-107" type="curve" smooth="yes"/>
      <point x="111" y="-107" smooth="yes"/>
      <point x="101" y="-74" smooth="yes"/>
      <point x="101" y="-55" type="curve" smooth="yes"/>
      <point x="101" y="-30"/>
      <point x="116" y="-9"/>
      <point x="128" y="2" type="curve"/>
      <point x="114" y="6" smooth="yes"/>
      <point x="102" y="7" smooth="yes"/>
      <point x="95" y="7" type="curve" smooth="yes"/>
      <point x="47" y="7" smooth="yes"/>
      <point x="20" y="-28" smooth="yes"/>
      <point x="20" y="-67" type="curve" smooth="yes"/>
      <point x="20" y="-115" smooth="yes"/>
      <point x="60" y="-169" smooth="yes"/>
      <point x="149" y="-169" type="curve" smooth="yes"/>
      <point x="263" y="-169" smooth="yes"/>
      <point x="316" y="-96" smooth="yes"/>
      <point x="316" y="-33" type="curve" smooth="yes"/>
      <point x="316" y="12"/>
      <point x="280" y="63"/>
      <point x="229" y="75" type="curve"/>
      <point x="280" y="98" smooth="yes"/>
      <point x="310" y="138" smooth="yes"/>
    </contour>
  </outline>
</glyph>
<glyph name="seveninferior" format="1">
  <advance width="271"/>
  <unicode hex="2087"/>
  <outline>
    <contour>
      <point x="247" y="350" type="curve" name="hr00"/>
      <point x="244" y="327"/>
      <point x="236" y="301"/>
      <point x="226" y="274" type="curve"/>
      <point x="205" y="272" smooth="yes"/>
      <point x="187" y="272" smooth="yes"/>
      <point x="173" y="272" type="curve" smooth="yes"/>
      <point x="101" y="272"/>
      <point x="20" y="285"/>
      <point x="20" y="285" type="curve"/>
      <point x="13" y="270" smooth="yes"/>
      <point x="10" y="254" smooth="yes"/>
      <point x="10" y="238" type="curve" smooth="yes"/>
      <point x="10" y="212" smooth="yes"/>
      <point x="20" y="184" smooth="yes"/>
      <point x="55" y="184" type="curve" smooth="yes"/>
      <point x="81" y="184"/>
      <point x="146" y="194"/>
      <point x="193" y="202" type="curve"/>
      <point x="170" y="156" smooth="yes"/>
      <point x="144" y="109" smooth="yes"/>
      <point x="119" y="66" type="curve" smooth="yes"/>
      <point x="71" y="-17" smooth="yes"/>
      <point x="29" y="-91" smooth="yes"/>
      <point x="29" y="-122" type="curve" smooth="yes"/>
      <point x="29" y="-181"/>
      <point x="109" y="-189"/>
      <point x="109" y="-189" type="curve"/>
      <point x="120" y="-102" smooth="yes"/>
      <point x="181" y="16" smooth="yes"/>
      <point x="230" y="110" type="curve" smooth="yes"/>
      <point x="266" y="178" smooth="yes"/>
      <point x="301" y="245" smooth="yes"/>
      <point x="301" y="270" type="curve" smooth="yes"/>
      <point x="301" y="317"/>
      <point x="259" y="340"/>
    </contour>
  </outline>
</glyph>
<glyph name="eightinferior" format="1">
  <advance width="371"/>
  <unicode hex="2088"/>
  <outline>
    <contour>
      <point x="35" y="-65" type="curve" smooth="yes"/>
      <point x="35" y="-118" smooth="yes"/>
      <point x="79" y="-169" smooth="yes"/>
      <point x="174" y="-169" type="curve" smooth="yes"/>
      <point x="267" y="-169" smooth="yes"/>
      <point x="326" y="-116" smooth="yes"/>
      <point x="326" y="-51" type="curve" smooth="yes"/>
      <point x="326" y="4"/>
      <point x="289" y="40"/>
      <point x="250" y="71" type="curve"/>
      <point x="308" y="103" smooth="yes"/>
      <point x="336" y="149" smooth="yes"/>
      <point x="336" y="188" type="curve" smooth="yes"/>
      <point x="336" y="232" smooth="yes"/>
      <point x="304" y="287" smooth="yes"/>
      <point x="221" y="287" type="curve" smooth="yes"/>
      <point x="129" y="287" smooth="yes"/>
      <point x="72" y="241" smooth="yes"/>
      <point x="72" y="172" type="curve" smooth="yes" name="hr01"/>
      <point x="72" y="122"/>
      <point x="100" y="85"/>
      <point x="133" y="55" type="curve"/>
      <point x="67" y="29" smooth="yes"/>
      <point x="35" y="-16" smooth="yes"/>
    </contour>
    <contour>
      <point x="234" y="-55" type="curve" smooth="yes"/>
      <point x="234" y="-96" smooth="yes"/>
      <point x="200" y="-109" smooth="yes"/>
      <point x="174" y="-109" type="curve" smooth="yes"/>
      <point x="142" y="-109" smooth="yes"/>
      <point x="125" y="-84" smooth="yes"/>
      <point x="125" y="-53" type="curve" smooth="yes"/>
      <point x="125" y="-23"/>
      <point x="143" y="2"/>
      <point x="167" y="26" type="curve"/>
      <point x="202" y="-2" smooth="yes"/>
      <point x="234" y="-27" smooth="yes"/>
    </contour>
    <contour>
      <point x="160" y="178" type="curve" smooth="yes" name="hr03"/>
      <point x="160" y="207" smooth="yes"/>
      <point x="183" y="226" smooth="yes"/>
      <point x="211" y="226" type="curve" smooth="yes"/>
      <point x="243" y="226" smooth="yes"/>
      <point x="255" y="203" smooth="yes"/>
      <point x="255" y="178" type="curve" smooth="yes"/>
      <point x="255" y="148"/>
      <point x="240" y="122"/>
      <point x="215" y="98" type="curve"/>
      <point x="185" y="122" smooth="yes"/>
      <point x="160" y="146" smooth="yes"/>
    </contour>
  </outline>
</glyph>
<glyph name="lira" format="1">
  <advance width="620"/>
  <unicode hex="20A4"/>
  <outline>
    <contour>
      <point x="406" y="197" type="curve" smooth="yes"/>
      <point x="437" y="197"/>
      <point x="461" y="194"/>
      <point x="472" y="188" type="curve"/>
      <point x="457" y="259" smooth="yes"/>
      <point x="427" y="277" smooth="yes"/>
      <point x="374" y="277" type="curve" smooth="yes"/>
      <point x="337" y="277"/>
      <point x="297" y="271"/>
      <point x="256" y="263" type="curve"/>
      <point x="268" y="342" type="line"/>
      <point x="315" y="350" smooth="yes"/>
      <point x="364" y="357" smooth="yes"/>
      <point x="406" y="357" type="curve" smooth="yes"/>
      <point x="437" y="357"/>
      <point x="461" y="354"/>
      <point x="472" y="348" type="curve"/>
      <point x="457" y="419" smooth="yes"/>
      <point x="427" y="437" smooth="yes"/>
      <point x="374" y="437" type="curve" smooth="yes"/>
      <point x="344" y="437"/>
      <point x="312" y="433"/>
      <point x="280" y="428" type="curve"/>
      <point x="296" y="535" smooth="yes"/>
      <point x="324" y="641" smooth="yes"/>
      <point x="387" y="641" type="curve" smooth="yes"/>
      <point x="422" y="641" smooth="yes"/>
      <point x="433" y="614" smooth="yes"/>
      <point x="433" y="588" type="curve" smooth="yes"/>
      <point x="433" y="554"/>
      <point x="410" y="518"/>
      <point x="383" y="500" type="curve"/>
      <point x="397" y="495" smooth="yes"/>
      <point x="412" y="493" smooth="yes"/>
      <point x="424" y="493" type="curve" smooth="yes"/>
      <point x="500" y="493" smooth="yes"/>
      <point x="539" y="550" smooth="yes"/>
      <point x="539" y="601" type="curve" smooth="yes"/>
      <point x="539" y="664" smooth="yes"/>
      <point x="499" y="719" smooth="yes"/>
      <point x="395" y="719" type="curve" smooth="yes"/>
      <point x="278" y="719"/>
      <point x="201" y="629"/>
      <point x="155" y="406" type="curve"/>
      <point x="125" y="401" smooth="yes"/>
      <point x="94" y="399" smooth="yes"/>
      <point x="64" y="399" type="curve" smooth="yes"/>
      <point x="52" y="399"/>
      <point x="40" y="400"/>
      <point x="28" y="400" type="curve"/>
      <point x="33" y="340" smooth="yes"/>
      <point x="57" y="316" smooth="yes"/>
      <point x="101" y="316" type="curve" smooth="yes"/>
      <point x="111" y="316"/>
      <point x="124" y="317"/>
      <point x="139" y="319" type="curve"/>
      <point x="130" y="243" type="line"/>
      <point x="108" y="240" smooth="yes"/>
      <point x="86" y="239" smooth="yes"/>
      <point x="64" y="239" type="curve" smooth="yes"/>
      <point x="52" y="239"/>
      <point x="40" y="240"/>
      <point x="28" y="240" type="curve"/>
      <point x="33" y="180" smooth="yes"/>
      <point x="57" y="156" smooth="yes"/>
      <point x="101" y="156" type="curve" smooth="yes"/>
      <point x="117" y="156" type="line"/>
      <point x="113" y="131"/>
      <point x="107" y="107"/>
      <point x="100" y="88" type="curve"/>
      <point x="25" y="54"/>
      <point x="20" y="-19"/>
      <point x="20" y="-21" type="curve"/>
      <point x="73" y="-4" smooth="yes"/>
      <point x="133" y="1" smooth="yes"/>
      <point x="187" y="1" type="curve" smooth="yes"/>
      <point x="283" y="1" smooth="yes"/>
      <point x="368" y="-19" smooth="yes"/>
      <point x="407" y="-19" type="curve" smooth="yes" name="hr01"/>
      <point x="497" y="-19"/>
      <point x="516" y="33"/>
      <point x="521" y="130" type="curve"/>
      <point x="463" y="106" smooth="yes"/>
      <point x="404" y="101" smooth="yes"/>
      <point x="345" y="101" type="curve" smooth="yes"/>
      <point x="293" y="101"/>
      <point x="242" y="105"/>
      <point x="192" y="105" type="curve"/>
      <point x="209" y="123"/>
      <point x="222" y="147"/>
      <point x="232" y="175" type="curve"/>
      <point x="290" y="186" smooth="yes"/>
      <point x="354" y="197" smooth="yes"/>
    </contour>
  </outline>
</glyph>
<glyph name="Euro" format="1">
  <advance width="620"/>
  <unicode hex="20AC"/>
  <outline>
    <contour>
      <point x="381" y="219" type="curve" smooth="yes" name="hr00"/>
      <point x="412" y="219"/>
      <point x="436" y="216"/>
      <point x="447" y="210" type="curve"/>
      <point x="432" y="281" smooth="yes"/>
      <point x="402" y="299" smooth="yes"/>
      <point x="349" y="299" type="curve" smooth="yes"/>
      <point x="307" y="299"/>
      <point x="256" y="291"/>
      <point x="203" y="282" type="curve"/>
      <point x="203" y="294" type="line" smooth="yes"/>
      <point x="203" y="311"/>
      <point x="204" y="329"/>
      <point x="206" y="347" type="curve"/>
      <point x="262" y="356" smooth="yes"/>
      <point x="320" y="364" smooth="yes"/>
      <point x="365" y="364" type="curve" smooth="yes"/>
      <point x="396" y="364"/>
      <point x="420" y="361"/>
      <point x="431" y="355" type="curve"/>
      <point x="416" y="426" smooth="yes"/>
      <point x="386" y="444" smooth="yes"/>
      <point x="333" y="444" type="curve" smooth="yes"/>
      <point x="300" y="444"/>
      <point x="263" y="439"/>
      <point x="223" y="433" type="curve"/>
      <point x="256" y="548" smooth="yes"/>
      <point x="328" y="641" smooth="yes"/>
      <point x="425" y="641" type="curve" smooth="yes"/>
      <point x="459" y="641" smooth="yes"/>
      <point x="474" y="614" smooth="yes"/>
      <point x="474" y="588" type="curve" smooth="yes"/>
      <point x="474" y="554"/>
      <point x="451" y="518"/>
      <point x="424" y="500" type="curve"/>
      <point x="438" y="495" smooth="yes"/>
      <point x="453" y="493" smooth="yes"/>
      <point x="465" y="493" type="curve" smooth="yes"/>
      <point x="541" y="493" smooth="yes"/>
      <point x="580" y="550" smooth="yes"/>
      <point x="580" y="601" type="curve" smooth="yes"/>
      <point x="580" y="664" smooth="yes"/>
      <point x="540" y="719" smooth="yes"/>
      <point x="436" y="719" type="curve" smooth="yes"/>
      <point x="240" y="719"/>
      <point x="118" y="584"/>
      <point x="80" y="411" type="curve"/>
      <point x="52" y="408" smooth="yes"/>
      <point x="24" y="406" smooth="yes"/>
      <point x="-2" y="406" type="curve" smooth="yes"/>
      <point x="-14" y="406"/>
      <point x="-26" y="407"/>
      <point x="-38" y="407" type="curve"/>
      <point x="-33" y="347" smooth="yes"/>
      <point x="-9" y="323" smooth="yes"/>
      <point x="35" y="323" type="curve" smooth="yes"/>
      <point x="43" y="323"/>
      <point x="55" y="324"/>
      <point x="68" y="325" type="curve"/>
      <point x="67" y="314" smooth="yes"/>
      <point x="67" y="304" smooth="yes"/>
      <point x="67" y="293" type="curve" smooth="yes"/>
      <point x="67" y="283"/>
      <point x="67" y="273"/>
      <point x="68" y="263" type="curve"/>
      <point x="49" y="261" smooth="yes"/>
      <point x="31" y="261" smooth="yes"/>
      <point x="14" y="261" type="curve" smooth="yes"/>
      <point x="2" y="261"/>
      <point x="-10" y="262"/>
      <point x="-22" y="262" type="curve"/>
      <point x="-17" y="202" smooth="yes"/>
      <point x="7" y="178" smooth="yes"/>
      <point x="51" y="178" type="curve" smooth="yes"/>
      <point x="58" y="178"/>
      <point x="68" y="179"/>
      <point x="79" y="180" type="curve"/>
      <point x="112" y="37" smooth="yes"/>
      <point x="209" y="-27" smooth="yes"/>
      <point x="313" y="-27" type="curve" smooth="yes"/>
      <point x="392" y="-27"/>
      <point x="497" y="5"/>
      <point x="569" y="140" type="curve"/>
      <point x="569" y="156"/>
      <point x="555" y="168"/>
      <point x="535" y="173" type="curve"/>
      <point x="480" y="98" smooth="yes"/>
      <point x="415" y="57" smooth="yes"/>
      <point x="358" y="57" type="curve" smooth="yes"/>
      <point x="292" y="57"/>
      <point x="234" y="102"/>
      <point x="212" y="200" type="curve"/>
      <point x="271" y="210" smooth="yes"/>
      <point x="334" y="219" smooth="yes"/>
    </contour>
  </outline>
</glyph>
<glyph name="uni2113" format="1">
  <advance width="299"/>
  <unicode hex="2113"/>
  <outline>
    <contour>
      <point x="67" y="99" type="curve" smooth="yes"/>
      <point x="67" y="33"/>
      <point x="72" y="-8"/>
      <point x="198" y="-13" type="curve"/>
      <point x="196" y="12" smooth="yes"/>
      <point x="194" y="37" smooth="yes"/>
      <point x="194" y="64" type="curve" smooth="yes"/>
      <point x="194" y="286" smooth="yes"/>
      <point x="252" y="534" smooth="yes"/>
      <point x="252" y="638" type="curve" smooth="yes" name="hr01"/>
      <point x="252" y="718"/>
      <point x="226" y="763"/>
      <point x="122" y="787" type="curve"/>
      <point x="130" y="770" smooth="yes"/>
      <point x="134" y="734" smooth="yes"/>
      <point x="134" y="688" type="curve" smooth="yes"/>
      <point x="134" y="515" smooth="yes"/>
      <point x="67" y="192" smooth="yes"/>
    </contour>
  </outline>
</glyph>
<glyph name="Delta" format="1">
  <advance width="658"/>
  <unicode hex="2206"/>
  <outline>
    <contour>
      <point x="384" y="733" type="curve" smooth="yes"/>
      <point x="350" y="733"/>
      <point x="326" y="729"/>
      <point x="302" y="722" type="curve"/>
      <point x="310" y="713"/>
      <point x="321" y="703"/>
      <point x="333" y="688" type="curve"/>
      <point x="273" y="532"/>
      <point x="125" y="259"/>
      <point x="31" y="42" type="curve"/>
      <point x="53" y="-11" smooth="yes"/>
      <point x="118" y="-14" smooth="yes"/>
      <point x="153" y="-14" type="curve" smooth="yes"/>
      <point x="269" y="-14"/>
      <point x="412" y="0"/>
      <point x="613" y="0" type="curve" name="hr01"/>
      <point x="635" y="14" smooth="yes"/>
      <point x="641" y="38" smooth="yes"/>
      <point x="641" y="62" type="curve" smooth="yes"/>
      <point x="641" y="81" smooth="yes"/>
      <point x="638" y="99" smooth="yes"/>
      <point x="634" y="114" type="curve" smooth="yes"/>
      <point x="518" y="569" type="line" smooth="yes"/>
      <point x="500" y="638" smooth="yes"/>
      <point x="460" y="733" smooth="yes"/>
    </contour>
    <contour>
      <point x="382" y="571" type="curve"/>
      <point x="425" y="432"/>
      <point x="474" y="202"/>
      <point x="502" y="95" type="curve"/>
      <point x="428" y="92" smooth="yes"/>
      <point x="374" y="83" smooth="yes"/>
      <point x="301" y="83" type="curve" smooth="yes"/>
      <point x="270" y="83"/>
      <point x="214" y="83"/>
      <point x="167" y="85" type="curve"/>
      <point x="227" y="246"/>
      <point x="323" y="440"/>
    </contour>
  </outline>
</glyph>
<glyph name="fi" format="1">
  <advance width="678"/>
  <unicode hex="FB01"/>
  <outline>
    <contour>
      <point x="409" y="584" type="curve" name="hr00"/>
      <point x="376" y="557"/>
      <point x="326" y="551"/>
      <point x="276" y="551" type="curve"/>
      <point x="305" y="701" smooth="yes"/>
      <point x="353" y="826" smooth="yes"/>
      <point x="426" y="826" type="curve" smooth="yes"/>
      <point x="477" y="826" smooth="yes"/>
      <point x="501" y="784" smooth="yes"/>
      <point x="501" y="741" type="curve" smooth="yes"/>
      <point x="501" y="710"/>
      <point x="489" y="679"/>
      <point x="464" y="662" type="curve"/>
      <point x="481" y="655" smooth="yes"/>
      <point x="496" y="652" smooth="yes"/>
      <point x="511" y="652" type="curve" smooth="yes"/>
      <point x="589" y="652" smooth="yes"/>
      <point x="629" y="704" smooth="yes"/>
      <point x="629" y="760" type="curve" smooth="yes"/>
      <point x="629" y="825" smooth="yes"/>
      <point x="574" y="897" smooth="yes"/>
      <point x="463" y="897" type="curve" smooth="yes"/>
      <point x="307" y="897"/>
      <point x="218" y="736"/>
      <point x="167" y="554" type="curve"/>
      <point x="94" y="554" smooth="yes"/>
      <point x="35" y="540" smooth="yes"/>
      <point x="35" y="461" type="curve" smooth="yes"/>
      <point x="35" y="450"/>
      <point x="36" y="439"/>
      <point x="37" y="428" type="curve"/>
      <point x="77" y="446"/>
      <point x="112" y="456"/>
      <point x="145" y="462" type="curve"/>
      <point x="114" y="312" smooth="yes"/>
      <point x="106" y="163" smooth="yes"/>
      <point x="106" y="93" type="curve" smooth="yes"/>
      <point x="106" y="-14"/>
      <point x="145" y="-81"/>
      <point x="246" y="-113" type="curve"/>
      <point x="231" y="-27" smooth="yes"/>
      <point x="230" y="-15" smooth="yes"/>
      <point x="230" y="63" type="curve" smooth="yes"/>
      <point x="230" y="134"/>
      <point x="237" y="307"/>
      <point x="262" y="470" type="curve"/>
      <point x="287" y="470" smooth="yes"/>
      <point x="313" y="469" smooth="yes"/>
      <point x="343" y="469" type="curve" smooth="yes"/>
      <point x="384" y="469" smooth="yes"/>
      <point x="411" y="486" smooth="yes"/>
      <point x="411" y="554" type="curve" smooth="yes"/>
      <point x="411" y="564"/>
      <point x="410" y="574"/>
    </contour>
    <component  base="dotlessi" xOffset="357"/>
  </outline>
</glyph>
<glyph name="fl" format="1">
  <advance width="671"/>
  <unicode hex="FB02"/>
  <outline>
    <contour>
      <point x="409" y="584" type="curve"/>
      <point x="376" y="557"/>
      <point x="325" y="551"/>
      <point x="275" y="551" type="curve"/>
      <point x="305" y="734" smooth="yes"/>
      <point x="348" y="826" smooth="yes"/>
      <point x="428" y="826" type="curve" smooth="yes"/>
      <point x="482" y="826" smooth="yes"/>
      <point x="503" y="783" smooth="yes"/>
      <point x="503" y="739" type="curve" smooth="yes"/>
      <point x="503" y="595" smooth="yes"/>
      <point x="438" y="240" smooth="yes"/>
      <point x="438" y="117" type="curve" smooth="yes" name="hr01"/>
      <point x="438" y="23"/>
      <point x="473" y="-8"/>
      <point x="577" y="-16" type="curve"/>
      <point x="569" y="4" smooth="yes"/>
      <point x="565" y="46" smooth="yes"/>
      <point x="565" y="101" type="curve" smooth="yes"/>
      <point x="565" y="304" smooth="yes"/>
      <point x="623" y="615" smooth="yes"/>
      <point x="623" y="724" type="curve" smooth="yes" name="hr02"/>
      <point x="623" y="840" smooth="yes"/>
      <point x="562" y="897" smooth="yes"/>
      <point x="451" y="897" type="curve" smooth="yes"/>
      <point x="349" y="897"/>
      <point x="229" y="808"/>
      <point x="166" y="554" type="curve"/>
      <point x="93" y="553" smooth="yes"/>
      <point x="35" y="540" smooth="yes"/>
      <point x="35" y="461" type="curve" smooth="yes"/>
      <point x="35" y="450"/>
      <point x="36" y="439"/>
      <point x="37" y="428" type="curve"/>
      <point x="77" y="446"/>
      <point x="113" y="457"/>
      <point x="147" y="463" type="curve"/>
      <point x="119" y="318" smooth="yes"/>
      <point x="106" y="183" smooth="yes"/>
      <point x="106" y="83" type="curve" smooth="yes"/>
      <point x="106" y="-4"/>
      <point x="145" y="-81"/>
      <point x="246" y="-113" type="curve"/>
      <point x="231" y="-27" smooth="yes"/>
      <point x="230" y="-15" smooth="yes"/>
      <point x="230" y="63" type="curve" smooth="yes"/>
      <point x="230" y="175"/>
      <point x="246" y="346"/>
      <point x="263" y="470" type="curve"/>
      <point x="288" y="470" smooth="yes"/>
      <point x="314" y="469" smooth="yes"/>
      <point x="343" y="469" type="curve" smooth="yes"/>
      <point x="384" y="469" smooth="yes"/>
      <point x="411" y="486" smooth="yes"/>
      <point x="411" y="554" type="curve" smooth="yes"/>
      <point x="411" y="564"/>
      <point x="410" y="574"/>
    </contour>
  </outline>
</glyph>
<glyph name="commaaccent" format="1">
  <advance width="209"/>
  <outline>
    <contour>
      <point x="45" y="-61" type="curve" name="hr00"/>
      <point x="54" y="-86" smooth="yes"/>
      <point x="60" y="-111" smooth="yes"/>
      <point x="60" y="-136" type="curve" smooth="yes"/>
      <point x="60" y="-194"/>
      <point x="33" y="-252"/>
      <point x="-19" y="-298" type="curve"/>
      <point x="10" y="-343" type="line"/>
      <point x="132" y="-280" smooth="yes"/>
      <point x="194" y="-197" smooth="yes"/>
      <point x="194" y="-112" type="curve" smooth="yes"/>
      <point x="194" y="-62" smooth="yes"/>
      <point x="157" y="-50" smooth="yes"/>
      <point x="120" y="-50" type="curve" smooth="yes"/>
      <point x="96" y="-50"/>
      <point x="66" y="-55"/>
    </contour>
  </outline>
</glyph>
<glyph name="grave.case" format="1">
  <advance width="372"/>
  <outline>
    <contour>
      <point x="352" y="881" type="curve" name="hr00"/>
      <point x="319" y="956"/>
      <point x="230" y="1064"/>
      <point x="151" y="1096" type="curve"/>
      <point x="132" y="1084"/>
      <point x="91" y="1056"/>
      <point x="88" y="989" type="curve"/>
      <point x="179" y="965"/>
      <point x="266" y="897"/>
      <point x="310" y="848" type="curve"/>
      <point x="331" y="852"/>
      <point x="349" y="866"/>
    </contour>
  </outline>
</glyph>
<glyph name="hungarumlaut.case" format="1">
  <advance width="450"/>
  <outline>
    <contour>
      <point x="70" y="853" type="curve" name="hr00"/>
      <point x="150" y="882"/>
      <point x="236" y="959"/>
      <point x="272" y="1027" type="curve"/>
      <point x="262" y="1048"/>
      <point x="238" y="1094"/>
      <point x="181" y="1097" type="curve"/>
      <point x="157" y="1015"/>
      <point x="89" y="937"/>
      <point x="40" y="898" type="curve"/>
      <point x="44" y="875"/>
      <point x="56" y="856"/>
    </contour>
    <contour>
      <point x="260" y="853" type="curve"/>
      <point x="340" y="882"/>
      <point x="426" y="959"/>
      <point x="462" y="1027" type="curve"/>
      <point x="452" y="1048"/>
      <point x="428" y="1094"/>
      <point x="371" y="1097" type="curve"/>
      <point x="347" y="1015"/>
      <point x="279" y="937"/>
      <point x="230" y="898" type="curve"/>
      <point x="234" y="875"/>
      <point x="246" y="856"/>
    </contour>
  </outline>
</glyph>
<glyph name="macron.case" format="1">
  <advance width="424"/>
  <outline>
    <contour>
      <point x="306" y="1022" type="curve" smooth="yes" name="hr00"/>
      <point x="246" y="1022" smooth="yes"/>
      <point x="202" y="1008" smooth="yes"/>
      <point x="153" y="1008" type="curve" smooth="yes"/>
      <point x="118" y="1008"/>
      <point x="87" y="1011"/>
      <point x="51" y="1019" type="curve"/>
      <point x="51" y="1011" smooth="yes"/>
      <point x="50" y="1005" smooth="yes"/>
      <point x="50" y="997" type="curve" smooth="yes"/>
      <point x="50" y="937" smooth="yes"/>
      <point x="60" y="893" smooth="yes"/>
      <point x="118" y="893" type="curve" smooth="yes"/>
      <point x="178" y="893" smooth="yes"/>
      <point x="222" y="907" smooth="yes"/>
      <point x="271" y="907" type="curve" smooth="yes"/>
      <point x="306" y="907"/>
      <point x="337" y="904"/>
      <point x="373" y="896" type="curve"/>
      <point x="373" y="904" smooth="yes"/>
      <point x="374" y="910" smooth="yes"/>
      <point x="374" y="918" type="curve" smooth="yes"/>
      <point x="374" y="978" smooth="yes"/>
      <point x="364" y="1022" smooth="yes"/>
    </contour>
  </outline>
</glyph>
<glyph name="tilde.case" format="1">
  <advance width="450"/>
  <outline>
    <contour>
      <point x="358" y="894" type="curve" name="hr00"/>
      <point x="400" y="894"/>
      <point x="448" y="923"/>
      <point x="460" y="1023" type="curve"/>
      <point x="457" y="1039"/>
      <point x="446" y="1045"/>
      <point x="433" y="1047" type="curve"/>
      <point x="420" y="1026" smooth="yes"/>
      <point x="394" y="1004" smooth="yes"/>
      <point x="358" y="1004" type="curve" smooth="yes"/>
      <point x="317" y="1004" smooth="yes"/>
      <point x="269" y="1032" smooth="yes"/>
      <point x="215" y="1032" type="curve" smooth="yes"/>
      <point x="173" y="1032"/>
      <point x="125" y="1003"/>
      <point x="113" y="903" type="curve"/>
      <point x="116" y="887"/>
      <point x="127" y="881"/>
      <point x="140" y="879" type="curve"/>
      <point x="153" y="900" smooth="yes"/>
      <point x="179" y="922" smooth="yes"/>
      <point x="215" y="922" type="curve" smooth="yes"/>
      <point x="256" y="922" smooth="yes"/>
      <point x="304" y="894" smooth="yes"/>
    </contour>
  </outline>
</glyph>
